<?xml version="1.0" encoding="UTF-8"?>
<svg width="700pt" height="700pt" version="1.1" viewBox="-120 0 950 550" xmlns="http://www.w3.org/2000/svg" xmlns:xlink="http://www.w3.org/1999/xlink">
 <g>
  <path d="m618.24 24.641-2.2383-2.2422-4.4805-4.4766-6.1602-6.1602-85.121 84.559-6.7188-6.7188-20.719 20.719 8.9609 8.9609-312.48 312.48-8.9609-8.9609-20.719 20.719 6.7188 6.7188-84.559 85.121 6.1602 6.1602 4.4766 4.4805 2.2422 2.2383 85.121-84.559 6.7188 6.7188 20.719-20.719-8.9609-8.9609 312.48-312.48 8.9609 8.9609 20.719-20.719-6.7188-6.7188z"/>
  <path d="m605.36 548.24 2.2422-2.2383 4.4766-4.4805 6.1602-6.1602-84.559-85.121 6.7188-6.7188-20.719-20.719-8.9609 8.9609-312.48-312.48 8.9609-8.9609-20.719-20.719-6.7188 6.7188-85.121-84.559-6.1602 6.1602-4.4805 4.4766-2.2383 2.2422 84.559 85.121-6.7188 6.7188 20.719 20.719 8.9609-8.9609 312.48 312.48-8.9609 8.9609 20.719 20.719 6.7188-6.7188z"/>
 </g>
</svg>
