<?xml version="1.0" encoding="UTF-8"?>
<svg width="700pt" height="700pt" version="1.1" viewBox="0 0 700 590" xmlns="http://www.w3.org/2000/svg" xmlns:xlink="http://www.w3.org/1999/xlink">
 <g>
  <path d="m556.99 440.7c-0.019531-0.69922-0.14453-1.3945-0.38281-2.0508l-0.15234-0.53125c0-0.19141 0-0.19141-0.19141-0.37891l-31.012-56.055 0.003906-178.89c-0.003906-7.0703-2.8281-13.844-7.8398-18.82-5.0156-4.9805-11.809-7.7539-18.875-7.707h-8.8945v-94.629c-0.042969-3.4648-2.8438-6.2656-6.3086-6.3086h-266.67c-3.4414 0.097657-6.2109 2.8633-6.3086 6.3086v94.629h-8.8945c-7.0391-0.007812-13.797 2.7812-18.777 7.7578-4.9844 4.9766-7.7852 11.727-7.7852 18.77v178.88l-31.164 56.055c-0.011719 0.14453-0.082031 0.28125-0.19141 0.37891l-0.19141 0.53125 0.003907 0.003907c-0.22266 0.66016-0.33594 1.3516-0.34375 2.0508v18.926c0.03125 6.6328 2.6797 12.984 7.3711 17.672 4.6914 4.6914 11.043 7.3398 17.676 7.3711h363.88c6.6406-0.003907 13.008-2.6445 17.703-7.3398 4.6953-4.6953 7.3359-11.062 7.3438-17.703zm-334.02-300.42h254.05v200.21h-254.05zm0-52.332h254.05v39.715h-254.05zm-35.609 114.85c0.078125-7.7227 6.375-13.934 14.098-13.91h8.8945v157.91c0.03125 3.4688 2.8359 6.2773 6.3086 6.3086h266.67c1.6758 0.007813 3.2891-0.65234 4.4727-1.8359 1.1875-1.1875 1.8477-2.7969 1.8359-4.4727v-157.91h8.8945c7.7227-0.023438 14.02 6.1875 14.098 13.91v174.25h-325.27zm-2.6211 186.86h330.52l24.855 44.922h-380.23zm359.82 69.965h-0.003906c-0.078125 6.9062-5.7109 12.453-12.617 12.426h-363.88c-3.3008 0.007813-6.4648-1.3008-8.793-3.6328-2.332-2.332-3.6406-5.4961-3.6367-8.793v-12.617h388.93zm-83.117-356.29c1.2305 1.1406 1.8984 2.7695 1.8242 4.4453 0.039063 1.6719-0.62109 3.2852-1.8242 4.4492-1.1953 1.1758-2.8047 1.8438-4.4844 1.8594-1.6523-0.082031-3.2266-0.73828-4.4453-1.8594-1.0859-1.2305-1.6797-2.8125-1.6719-4.4492-0.0625-1.6836 0.62109-3.3086 1.8633-4.4453 2.418-2.3945 6.3164-2.3945 8.7383 0zm-26.906 4.4453c0.007813 1.6836-0.66016 3.2969-1.8516 4.4844s-2.8125 1.8438-4.4961 1.8242c-3.4844 0-6.3086-2.8242-6.3086-6.3086s2.8242-6.3086 6.3086-6.3086c1.6836-0.019531 3.3047 0.64063 4.4961 1.8242 1.1914 1.1875 1.8594 2.8047 1.8516 4.4844zm-30.82-4.4453c1.293 1.1172 2.0391 2.7383 2.0508 4.4453-0.050781 1.6992-0.78906 3.3047-2.0508 4.4492-1.082 1.207-2.6367 1.8867-4.2578 1.8594-1.6797-0.015625-3.2852-0.68359-4.4844-1.8594-1.125-1.2148-1.7734-2.793-1.8242-4.4492 0.015625-1.6602 0.66797-3.2539 1.8242-4.4453 2.4219-2.3945 6.3203-2.3945 8.7422 0zm-29.148 94.629-37.281 99.457c-0.84766 2.4492-3.1484 4.0938-5.7383 4.1016-0.76172-0.027344-1.5156-0.15625-2.2422-0.37891-1.5977-0.56641-2.8906-1.7578-3.5938-3.2969-0.70312-1.5391-0.75-3.2969-0.13281-4.875l37.129-99.266c1.1875-3.2539 4.7852-4.9375 8.0469-3.7695 3.2617 1.1719 4.9648 4.7578 3.8125 8.0273zm-73.461 18.203-35.457 29.301 35.457 29.527v0.003906c1.3398 1.0391 2.1797 2.5938 2.3164 4.2852 0.13672 1.6914-0.44141 3.3633-1.5977 4.6055-1.1172 1.4219-2.8281 2.2461-4.6328 2.2422-1.4883-0.015625-2.9219-0.53906-4.0664-1.4805l-41.195-34.355h-0.003906c-1.4922-1.1445-2.332-2.9492-2.2422-4.8281-0.007812-1.8633 0.81641-3.6289 2.2422-4.8242l41.195-34.129h0.003906c1.2461-1.0625 2.8672-1.582 4.5-1.4492 1.6328 0.13672 3.1445 0.91797 4.1992 2.1719 1.1562 1.25 1.7344 2.9258 1.5977 4.625-0.13672 1.6953-0.97656 3.2578-2.3164 4.3047zm147.15 24.473-0.003907 0.003907c1.3477 1.25 2.1406 2.9883 2.2031 4.8242 0.019531 1.8555-0.78906 3.625-2.2031 4.8281l-41.387 34.355c-1.0859 0.94141-2.4727 1.4648-3.9141 1.4805-2.6484 0.003906-5.0195-1.6523-5.9297-4.1445-0.90625-2.4883-0.16406-5.2812 1.8633-6.9883l35.457-29.527-35.457-29.301v-0.003906c-2.6133-2.2891-2.9492-6.2344-0.75781-8.9297 2.2148-2.6094 6.125-2.9336 8.7383-0.72266z"/>
 </g>
</svg>
