<svg width="700pt" height="700pt" version="1.1" viewBox="0 0 700 600" xmlns="http://www.w3.org/2000/svg" fill="black"
  alt="Icon by ghufronagustian" title="Icon by ghufronagustian">
  <g>
    <path
      d="m139.74 304.62c-0.24609 0.23828-0.52344 0.42969-0.76172 0.67188-40.145 40.145-31.176 114.44 19.992 165.63 23 23.734 53.152 39.266 85.828 44.219 5.0703 0.67188 10.18 1.0117 15.293 1.0156 23.48 0.54297 46.23-8.1875 63.324-24.297l0.30469-0.25c0.26953-0.26172 0.60156-0.4375 0.875-0.69922 20.242-21.27 29.234-50.859 24.25-79.797-4.9648-32.676-20.5-62.824-44.227-85.828-50.84-50.824-124.46-59.988-164.83-20.695zm63.961-7.0938c33.617 1.3359 65.383 15.73 88.551 40.125 21.004 20.27 34.785 46.859 39.238 75.707 2.8906 18.125-0.49219 36.695-9.5859 52.637-6.1133-18.289-16.77-34.727-30.973-47.773-15.48-12.934-33.934-21.816-53.695-25.848-16.891-3.4727-32.793-10.664-46.551-21.055-17.18-15.016-29.473-34.828-35.293-56.887 13.551-11.254 30.699-17.254 48.309-16.906zm-24.062 87.379c15.609 11.953 33.695 20.27 52.93 24.336 17.148 3.3789 33.195 10.949 46.707 22.035 14.387 13.559 24.488 31.027 29.062 50.258-17.113 14.031-39.465 19.957-61.277 16.25-28.852-4.4453-55.449-18.23-75.715-39.238-39.504-39.508-50.723-93.832-29.203-128.81 7.3281 21.418 20.273 40.473 37.488 55.172z" />
    <path
      d="m586.05 379.99c-1.0625-33.031-12.934-64.801-33.789-90.438-18.129-23.078-46.043-36.297-75.383-35.703-56.699 2.7344-100.03 63.762-96.539 136.05v0.003906c1.0586 33.035 12.934 64.809 33.801 90.438 17.25 21.977 43.406 35.105 71.336 35.805 1.3516 0 2.6836-0.035157 4.0234-0.09375 56.711-2.7461 100.04-63.773 96.551-136.06zm-102.43 118.5h-0.003906c-22.078-1.3164-42.527-12.059-56.141-29.496-18.363-22.688-28.785-50.77-29.668-79.945-2.6797-55.848 25.551-103.77 65.062-115.15v-0.003906c-9.0273 20.824-12.281 43.695-9.418 66.211 3.5195 19.336 11.316 37.645 22.812 53.586 10.43 14.031 17.227 30.43 19.777 47.73 1.5352 19.828-2.7852 39.672-12.426 57.066zm20.617-2.6953-0.003907 0.003907c7.7812-17.66 10.949-37.004 9.2031-56.219-2.7617-19.984-10.449-38.965-22.371-55.234-10.168-13.93-17.109-29.945-20.32-46.887-2.6172-22.711 1.6328-45.688 12.199-65.961 22.004 1.3281 42.383 12.023 55.973 29.379 18.363 22.691 28.785 50.773 29.664 79.945 2.668 55.52-25.199 103.23-64.348 114.98z" />
    <path
      d="m315.99 43.758c-72.48-1.4062-131.68 44.938-132.24 101.72s57.902 103.54 130.26 104.23c0.54688 0.007813 1.1094 0.007813 1.6562 0.007813h0.003907c32.484 0.5 64.258-9.5117 90.59-28.539 23.805-16.512 38.559-43.172 39.914-72.109v-0.09375c0-0.33203 0.066406-0.65234 0.070313-0.98438 0.55469-56.781-57.895-103.54-130.25-104.23zm79.727 163.45h-0.003906c-23.59 17.27-52.316 26.082-81.535 25.004-55.539-0.52344-101.54-31.062-111.05-70.766 15.738 7.9648 33.09 12.223 50.727 12.445 1.6055 0 3.2305-0.035156 4.8359-0.10938 20.117-1.6016 39.516-8.1836 56.449-19.16 14.488-9.3438 30.875-15.348 47.973-17.57 22.867-1.3594 45.613 4.2227 65.254 16.012-2.6445 21.883-14.527 41.59-32.648 54.137zm-34.246-87.578-0.003906 0.003906c-19.508 2.3945-38.23 9.1133-54.809 19.668-14.609 9.6055-31.375 15.441-48.789 16.988-19.887 0.48828-39.465-4.9648-56.234-15.656 3.8945-44.398 52.906-79.383 112.71-79.383 0.47656 0 0.97656 0 1.4688 0.007812 55.914 0.52344 102.13 31.484 111.21 71.574h0.003906c-20.277-10.203-42.922-14.766-65.566-13.203z" />
  </g>
</svg>