<?xml version="1.0" encoding="UTF-8"?>
<svg version="1.1" viewBox="0 0 700 560" xmlns="http://www.w3.org/2000/svg" xmlns:xlink="http://www.w3.org/1999/xlink">
 <g>
  <path d="m528.78 378.47c0.28516-0.62891 0.51562-1.2617 0.74609-1.9492 0.17188-0.6875 0.28516-1.375 0.34375-2.0625 0.058594-0.51562 0.23047-1.0312 0.28516-1.5469l8.707-199.4c0-0.34375-0.058593-0.6875-0.058593-1.0312 0-0.51562 0-1.0898-0.058594-1.6055-0.058594-0.45703-0.17188-0.85938-0.23047-1.2617-0.11328-0.45703-0.17188-0.91797-0.28516-1.375s-0.28516-0.85938-0.45703-1.3164c-0.17188-0.40234-0.28516-0.80078-0.45703-1.2031s-0.45703-0.80078-0.6875-1.2031c-0.23047-0.40234-0.40234-0.74609-0.6875-1.1445-0.28516-0.40234-0.57422-0.74609-0.85938-1.0898-0.28516-0.34375-0.51562-0.6875-0.85938-0.97266-0.34375-0.34375-0.6875-0.62891-1.0898-0.97266-0.34375-0.28516-0.62891-0.57422-0.97266-0.80078-0.40234-0.28516-0.85938-0.57422-1.3164-0.85938-0.28516-0.17188-0.57422-0.40234-0.85938-0.57422l-175.46-91.078c-0.51563-0.28516-1.0898-0.34375-1.6055-0.57422-0.62891-0.23047-1.2617-0.51562-1.8906-0.6875-0.74609-0.17187-1.4883-0.23047-2.2344-0.34375-0.62891-0.058593-1.2617-0.17187-1.8906-0.17187-0.74609 0-1.4883 0.11328-2.2344 0.23047-0.62891 0.11328-1.2617 0.17188-1.8906 0.28516-0.74609 0.17188-1.375 0.51563-2.0625 0.80078-0.51562 0.23047-1.0312 0.28516-1.4883 0.57422l-174.25 92.629c-0.11328 0.058593-0.17187 0.11328-0.28516 0.17188-0.17188 0.11328-0.34375 0.23047-0.57422 0.34375-0.40234 0.23047-0.80078 0.51562-1.2031 0.74609-0.34375 0.28516-0.6875 0.57422-1.0312 0.85937-0.28516 0.23047-0.57422 0.45703-0.80078 0.6875l-0.058593 0.058594c-0.058594 0.058594-0.11328 0.11328-0.11328 0.17188-0.34375 0.34375-0.62891 0.6875-0.91797 1.0312-0.28516 0.34375-0.57422 0.6875-0.80078 1.0312-0.17188 0.28516-0.34375 0.57422-0.57422 0.85938-0.058594 0.11328-0.11328 0.17188-0.17188 0.23047-0.058593 0.11328-0.058593 0.23047-0.11328 0.28516-0.17188 0.28516-0.34375 0.57422-0.45703 0.91797-0.17188 0.40234-0.34375 0.80078-0.51562 1.2617-0.17188 0.40234-0.34375 0.85938-0.45703 1.2617 0 0.058593-0.058594 0.17187-0.058594 0.23047v0.058594c-0.11328 0.34375-0.11328 0.6875-0.17188 1.0898-0.058594 0.45703-0.17188 0.85938-0.23047 1.3164s-0.058594 0.91797-0.058594 1.375c0 0.23047-0.058593 0.45703 0 0.6875v0.40234l7.9609 197.86c0 0.51563 0.17188 0.97266 0.28516 1.4883 0.11328 0.74609 0.17188 1.4883 0.40234 2.1758 0.17188 0.62891 0.45703 1.2617 0.6875 1.8906 0.28516 0.6875 0.51562 1.3164 0.91797 1.9492 0.34375 0.57422 0.74609 1.1445 1.1445 1.6602 0.45703 0.57422 0.85938 1.1445 1.375 1.6602 0.45703 0.51562 1.0312 0.91797 1.6055 1.3164 0.40234 0.28516 0.74609 0.6875 1.1445 0.97266l166.01 107.69s0.058594 0 0.058594 0.058594c1.2031 0.80078 2.5195 1.3164 3.8398 1.7773 0.28516 0.11328 0.62891 0.17187 0.91797 0.28516 1.3164 0.34375 2.6914 0.57422 4.125 0.57422 1.375 0 2.75-0.23047 4.0664-0.57422 0.34375-0.058594 0.62891-0.17188 0.97266-0.28516 1.3164-0.40234 2.6367-0.97266 3.7812-1.7188 0.058594 0 0.058594 0 0.11328-0.058594l166.87-107.69c0.45703-0.28516 0.80078-0.6875 1.2031-1.0312 0.51562-0.45703 1.0898-0.85938 1.5469-1.3164 0.51562-0.51562 0.91797-1.0898 1.3164-1.6055 0.40234-0.57422 0.85938-1.0898 1.2031-1.7188 0.28125-0.40625 0.57031-1.0938 0.85547-1.7266zm-36.605-187.6-18.73 32.48-40.039 68.051-28.812-49.949-28.871-50.066 38.496-0.57422h77.957zm-174.66 67.078 29.215-50.582 58.43 101.16-116.86 0.003906zm0.17188-66.277-28.758 49.777-29.215 50.582-58.312-100.99zm-25.891 154.04h110.5l-55.449 99.902-2.8633-4.9258zm-56.652-26.008-39.066 23.773-4.0664-100.93zm205.93 29.848 40.844 23.484-86.785 56.023zm21.938-25.434-7.2734-4.1836 46.516-80.539 0.62891-1.1445-4.5859 106.09zm-49.262-166.29h-50.352l-0.003906-48.977 93.141 48.402zm-83.348 0h-91.539l91.48-48.691v48.691zm-77.734 192.07 46.457 79.453-86.785-56.309z"/>
 </g>
</svg>
