<?xml version="1.0" encoding="UTF-8"?>
<svg width="700pt" height="700pt" version="1.1" viewBox="30 0 650 570" xmlns="http://www.w3.org/2000/svg" xmlns:xlink="http://www.w3.org/1999/xlink">
 <g>
  <path d="m602 371.14c0-58.656-47.668-106.35-106.21-106.35-45.504 0-84.383 28.785-99.496 69.125l-21.801-15.066c2.2305-4.0352 3.4766-8.6641 3.4766-13.586 0-13.918-10.098-25.473-23.309-27.805v-25.668c19.965-0.91797 38.484-7.3516 54.09-17.855 28.422-19.102 47.207-51.566 47.207-88.359 0.03125-58.691-47.602-106.38-106.18-106.38s-106.21 47.691-106.21 106.35 45.012 103.66 101.3 106.22v25.668c-13.242 2.332-23.309 13.918-23.309 27.801 0 4.7266 1.1836 9.1602 3.2461 13.098l-21.375 14.77c-15.309-39.914-53.992-68.34-99.164-68.34-58.582 0.035156-106.25 47.727-106.25 106.38 0 36.797 18.75 69.258 47.207 88.359 16.883 11.359 37.176 17.988 59.008 17.988 58.582 0 106.21-47.691 106.21-106.35 0-9.7812-1.3438-19.234-3.832-28.262l24.223-16.738c5.0195 4.5625 11.672 7.3828 18.949 7.3828 7.2773 0 13.574-2.6562 18.555-7.0234l24.852 17.199c-2.3281 8.7656-3.6055 17.957-3.6055 27.441 0 36.797 18.75 69.258 47.203 88.359 16.887 11.324 37.176 17.957 59.012 17.957 21.832 0 42.125-6.6328 59.008-17.988 28.422-19.102 47.207-51.566 47.207-88.359zm-449.12 81.598c-0.49219-3.2812-0.78906-6.6289-0.78906-9.9766 0-22.254 11.051-42.539 28.359-52.648 6.7852 4.6289 14.98 7.3516 23.766 7.3516s17.016-2.7227 23.77-7.3516c17.309 10.109 28.355 30.395 28.355 52.648 0 3.3477-0.29688 6.6953-0.78516 9.9766-14.883 9.4219-32.457 14.871-51.34 14.871-18.883 0-36.453-5.4805-51.336-14.871zm51.336-65.086c-17.898 0-32.453-14.574-32.453-32.496s14.555-32.496 32.453-32.496c17.898 0 32.457 14.574 32.457 32.496s-14.559 32.496-32.457 32.496zm61.863 57.406c0-0.75391 0.097656-1.5078 0.097656-2.2656 0-24.551-11.801-47.133-30.488-59.441 6.7188-7.4844 10.816-17.363 10.816-28.195 0-23.34-18.98-42.344-42.289-42.344s-42.289 19.004-42.289 42.344c0 10.832 4.1328 20.68 10.82 28.195-18.688 12.309-30.488 34.891-30.488 59.441 0 0.75781 0.066407 1.5117 0.097657 2.2656-21.078-17.723-34.52-44.277-34.52-73.918 0-53.207 43.238-96.5 96.379-96.5s96.383 43.293 96.383 96.5c0 29.641-13.441 56.227-34.52 73.918zm32.387-217.88c-0.49219-3.2812-0.78516-6.5977-0.78516-9.9766 0-22.254 11.047-42.539 28.355-52.648 6.7852 4.625 14.984 7.3516 23.77 7.3516 8.7852 0 17.012-2.7266 23.797-7.3516 17.312 10.109 28.324 30.395 28.324 52.648 0 3.3477-0.29297 6.6641-0.78516 9.9766-14.883 9.4219-32.453 14.871-51.336 14.871-18.883 0-36.457-5.4844-51.34-14.871zm51.34-65.09c-17.902 0-32.457-14.57-32.457-32.492s14.555-32.496 32.457-32.496c17.898 0 32.453 14.574 32.453 32.496s-14.555 32.492-32.453 32.492zm-96.383-16.508c0-53.207 43.242-96.504 96.383-96.504 53.141 0 96.379 43.297 96.379 96.504 0 29.637-13.441 56.227-34.52 73.918 0-0.75391 0.097657-1.5117 0.097657-2.2656 0-24.551-11.801-47.133-30.488-59.441 6.7227-7.4844 10.82-17.363 10.82-28.195 0-23.34-18.98-42.344-42.289-42.344-23.309 0-42.289 19.004-42.289 42.344 0 10.832 4.1289 20.676 10.816 28.195-18.688 12.309-30.488 34.891-30.488 59.441 0 0.75391 0.066406 1.5117 0.097656 2.2656-21.078-17.727-34.52-44.281-34.52-73.918zm96.383 178.13c-10.133 0-18.391-8.2734-18.391-18.414 0-10.145 8.2578-18.414 18.391-18.414 10.129 0 18.391 8.2695 18.391 18.414 0 10.141-8.2617 18.414-18.391 18.414zm94.707 129.06c-0.49219-3.2812-0.78516-6.5977-0.78516-9.9805 0-22.254 11.047-42.539 28.355-52.648 6.7852 4.6289 14.98 7.3555 23.77 7.3555 8.7852 0 17.012-2.7266 23.766-7.3555 17.309 10.109 28.355 30.395 28.355 52.648 0 3.3477-0.29297 6.6641-0.78516 9.9805-14.883 9.418-32.457 14.867-51.336 14.867-18.883 0-36.457-5.4805-51.34-14.867zm51.34-65.09c-17.902 0-32.457-14.574-32.457-32.496s14.555-32.496 32.457-32.496c17.898 0 32.453 14.574 32.453 32.496s-14.555 32.496-32.453 32.496zm61.859 57.41c0-0.75781 0.097656-1.5117 0.097656-2.2656 0-24.555-11.801-47.137-30.488-59.445 6.7227-7.4844 10.82-17.363 10.82-28.195 0-23.336-18.984-42.34-42.289-42.34-23.309 0-42.293 19.004-42.293 42.34 0 10.832 4.1328 20.68 10.82 28.195-18.688 12.309-30.488 34.891-30.488 59.445 0 0.75391 0.066406 1.5078 0.097656 2.2656-21.078-17.727-34.52-44.281-34.52-73.922 0-53.207 43.242-96.5 96.383-96.5 53.141 0 96.379 43.293 96.379 96.5 0 29.641-13.441 56.23-34.52 73.922z"/>
  <path d="m508.6 177.32h17.703v17.727c0 2.7227 2.1953 4.9219 4.918 4.9219 2.7188 0 4.918-2.1992 4.918-4.9219v-17.727h17.703c2.7188 0 4.9141-2.1992 4.9141-4.9219 0-2.7227-2.1953-4.9219-4.9141-4.9219h-17.703v-17.727c0-2.7266-2.1992-4.9258-4.918-4.9258-2.7227 0-4.918 2.1992-4.918 4.9258v17.727h-17.703c-2.7188 0-4.918 2.1992-4.918 4.9219 0 2.7227 2.1992 4.9219 4.918 4.9219z"/>
  <path d="m369.83 493.91h-17.703v-17.727c0-2.7227-2.1953-4.9219-4.918-4.9219-2.7188 0-4.9141 2.1992-4.9141 4.9219v17.727h-17.703c-2.7227 0-4.918 2.1992-4.918 4.9219 0 2.7266 2.1953 4.9219 4.918 4.9219h17.703v17.727c0 2.7227 2.1953 4.9219 4.9141 4.9219 2.7227 0 4.918-2.1992 4.918-4.9219v-17.727h17.703c2.7227 0 4.918-2.1953 4.918-4.9219 0-2.7227-2.1953-4.9219-4.918-4.9219z"/>
  <use x="70" y="644" xlink:href="#t"/>
  <use x="90.550781" y="644" xlink:href="#d"/>
  <use x="104.359375" y="644" xlink:href="#b"/>
  <use x="123.347656" y="644" xlink:href="#j"/>
  <use x="142.242188" y="644" xlink:href="#c"/>
  <use x="155.628906" y="644" xlink:href="#b"/>
  <use x="174.617188" y="644" xlink:href="#i"/>
  <use x="204.410156" y="644" xlink:href="#h"/>
  <use x="224.453125" y="644" xlink:href="#g"/>
  <use x="252.453125" y="644" xlink:href="#f"/>
  <use x="272.726562" y="644" xlink:href="#a"/>
  <use x="291.960938" y="644" xlink:href="#a"/>
  <use x="311.199219" y="644" xlink:href="#e"/>
  <use x="340.882812" y="644" xlink:href="#s"/>
  <use x="362.441406" y="644" xlink:href="#a"/>
  <use x="70" y="672" xlink:href="#r"/>
  <use x="82.183594" y="672" xlink:href="#d"/>
  <use x="95.992188" y="672" xlink:href="#a"/>
  <use x="115.226562" y="672" xlink:href="#q"/>
  <use x="154.152344" y="672" xlink:href="#c"/>
  <use x="167.535156" y="672" xlink:href="#p"/>
  <use x="187.46875" y="672" xlink:href="#b"/>
  <use x="216.207031" y="672" xlink:href="#o"/>
  <use x="239.640625" y="672" xlink:href="#a"/>
  <use x="258.878906" y="672" xlink:href="#n"/>
  <use x="278.8125" y="672" xlink:href="#e"/>
  <use x="308.492188" y="672" xlink:href="#m"/>
  <use x="329.015625" y="672" xlink:href="#d"/>
  <use x="342.820312" y="672" xlink:href="#a"/>
  <use x="362.058594" y="672" xlink:href="#l"/>
  <use x="371.65625" y="672" xlink:href="#b"/>
  <use x="390.648438" y="672" xlink:href="#k"/>
  <use x="407.242188" y="672" xlink:href="#c"/>
 </g>
</svg>
