<?xml version="1.0" encoding="UTF-8"?>
<svg width="700pt" height="700pt" version="1.1" viewBox="-15 -140 700 860" xmlns="http://www.w3.org/2000/svg" xmlns:xlink="http://www.w3.org/1999/xlink">
 <g>
  <path d="m556.64 155.12-135.52-134.96c-3.9219-3.9219-8.9609-6.1602-14.559-6.1602h-248.64c-11.199 0-20.719 8.9609-20.719 20.719v490.56c0 11.199 8.9609 20.719 20.719 20.719h384.16c11.199 0 20.719-8.9609 20.719-20.719v-355.6c0-5.0391-2.2422-10.641-6.1602-14.559zm-129.36-70.562 64.961 64.961h-64.961zm-248.64 420v-449.12h207.2v114.8c0 11.199 8.9609 20.719 20.719 20.719h114.8v314.16h-342.72z"/>
  <path d="m443.52 406h-187.04c-11.199 0-20.719 8.9609-20.719 20.719 0 11.199 8.9609 20.719 20.719 20.719h187.04c11.199 0 20.719-8.9609 20.719-20.719s-9.5195-20.719-20.719-20.719z"/>
  <path d="m443.52 316.96h-187.04c-11.199 0-20.719 8.9609-20.719 20.719 0 11.199 8.9609 20.719 20.719 20.719h187.04c11.199 0 20.719-8.9609 20.719-20.719 0-11.199-9.5195-20.719-20.719-20.719z"/>
  <path d="m344.4 148.96c0 22.887-18.551 41.438-41.438 41.438-22.887 0-41.441-18.551-41.441-41.438 0-22.887 18.555-41.441 41.441-41.441 22.887 0 41.438 18.555 41.438 41.441"/>
  <path d="m249.2 268.24h106.96c5.6016 0 10.641-5.0391 9.5195-11.199l-2.8008-21.84c-2.2383-16.238-13.441-29.68-28-35.84-9.5195 6.1602-20.16 9.5195-32.48 9.5195-11.762 0-22.961-3.3594-32.48-9.5195-14.559 6.1602-25.762 19.602-28 35.84l-2.8008 21.84c0.003906 6.1602 4.4844 11.199 10.082 11.199z"/>
  <use x="70" y="644" xlink:href="#h"/>
  <use x="90.550781" y="644" xlink:href="#c"/>
  <use x="104.359375" y="644" xlink:href="#a"/>
  <use x="123.347656" y="644" xlink:href="#l"/>
  <use x="142.242188" y="644" xlink:href="#b"/>
  <use x="155.628906" y="644" xlink:href="#a"/>
  <use x="174.617188" y="644" xlink:href="#e"/>
  <use x="204.410156" y="644" xlink:href="#k"/>
  <use x="224.453125" y="644" xlink:href="#j"/>
  <use x="252.453125" y="644" xlink:href="#i"/>
  <use x="274.121094" y="644" xlink:href="#e"/>
  <use x="294.164062" y="644" xlink:href="#c"/>
  <use x="307.972656" y="644" xlink:href="#u"/>
  <use x="317.570312" y="644" xlink:href="#a"/>
  <use x="336.5625" y="644" xlink:href="#g"/>
  <use x="366.242188" y="644" xlink:href="#h"/>
  <use x="386.789062" y="644" xlink:href="#d"/>
  <use x="406.027344" y="644" xlink:href="#t"/>
  <use x="426.070312" y="644" xlink:href="#f"/>
  <use x="446.003906" y="644" xlink:href="#a"/>
  <use x="464.992187" y="644" xlink:href="#b"/>
  <use x="70" y="672" xlink:href="#s"/>
  <use x="82.183594" y="672" xlink:href="#c"/>
  <use x="95.992188" y="672" xlink:href="#d"/>
  <use x="115.226562" y="672" xlink:href="#r"/>
  <use x="154.152344" y="672" xlink:href="#b"/>
  <use x="167.535156" y="672" xlink:href="#q"/>
  <use x="187.46875" y="672" xlink:href="#a"/>
  <use x="216.207031" y="672" xlink:href="#p"/>
  <use x="239.640625" y="672" xlink:href="#d"/>
  <use x="258.878906" y="672" xlink:href="#f"/>
  <use x="278.8125" y="672" xlink:href="#g"/>
  <use x="308.492188" y="672" xlink:href="#o"/>
  <use x="329.015625" y="672" xlink:href="#c"/>
  <use x="342.820312" y="672" xlink:href="#d"/>
  <use x="362.058594" y="672" xlink:href="#n"/>
  <use x="371.65625" y="672" xlink:href="#a"/>
  <use x="390.648438" y="672" xlink:href="#m"/>
  <use x="407.242188" y="672" xlink:href="#b"/>
 </g>
</svg>
