<?xml version="1.0" encoding="UTF-8"?>
<svg width="700pt" height="700pt" version="1.1" viewBox="0 0 700 590" xmlns="http://www.w3.org/2000/svg" xmlns:xlink="http://www.w3.org/1999/xlink">
 <g>
  <path d="m350 456.4c-91.281 0-165.2-73.922-165.2-165.2 0-91.277 73.918-165.2 165.2-165.2 38.078 0 75.602 13.441 105.28 37.52 18.48 15.121 33.602 34.719 43.68 56 2.2383 3.9219 0 8.9609-3.9219 11.199-3.9219 2.2383-8.9609 0-11.199-3.9219-9.5195-19.039-22.961-36.398-39.199-50.398-26.32-21.84-59.922-34.16-94.641-34.16-81.762 0-148.4 66.641-148.4 148.4 0 81.762 66.637 148.96 148.4 148.96 57.68 0 110.32-33.602 134.96-86.238 1.6797-4.4805 6.7188-6.1602 11.199-3.9219 4.4805 1.6797 6.1602 6.7188 3.9219 11.199-26.883 58.238-85.684 95.758-150.08 95.758z"/>
  <path d="m225.12 398.16c-49.281 0-84-13.441-93.52-38.641-10.082-27.441 10.078-62.719 57.117-98 3.9219-2.8008 8.9609-2.2383 11.762 1.6797 2.8008 3.9219 2.2383 8.9609-1.6797 11.762-39.199 29.68-58.238 59.359-51.52 78.961 11.199 30.238 88.48 40.879 199.36 6.7188 4.4805-1.1211 8.9609 1.1211 10.641 5.6016 1.1211 4.4805-1.1211 8.9609-5.6016 10.641-47.039 14.559-90.719 21.277-126.56 21.277z"/>
  <path d="m560.56 211.68c-3.3594 0-6.7188-2.2383-7.8398-5.6016-7.2812-19.602-40.879-29.68-90.16-27.441h-12.879c-4.4805 0-8.3984-3.9219-8.3984-8.3984 0-4.4805 3.9219-8.3984 8.3984-8.3984h12.32c58.238-2.8008 96.32 10.641 106.4 38.641 1.6797 4.4805-0.55859 8.9609-5.0391 10.641-1.1211 0.55859-1.6797 0.55859-2.8008 0.55859z"/>
  <path d="m350 375.76c-1.1211 0-2.2383 0-3.3594-0.55859l-40.879-19.039c-4.4805-1.6797-6.1602-6.7188-3.9219-11.199 2.2383-4.4805 6.7188-6.1602 11.199-3.9219l40.879 19.039c4.4805 1.6797 6.1602 6.7188 3.9219 11.199-1.6797 2.7969-4.4805 4.4805-7.8398 4.4805z"/>
  <path d="m330.96 416.64c-1.1211 0-2.2383 0-3.3594-0.55859-4.4805-1.6797-6.1602-6.7188-3.9219-11.199l19.039-40.879c2.2383-4.4805 6.7188-6.1602 11.199-3.9219 4.4805 1.6797 6.1602 6.7188 3.9219 11.199l-19.039 40.32c-1.6797 3.3594-4.4805 5.0391-7.8398 5.0391z"/>
  <path d="m398.16 358.4c-1.1211 0-2.2383 0-3.3594-0.55859l-67.199-30.801c-3.3594-1.6797-5.6016-5.6016-4.4805-9.5195 1.1211-3.9219 3.9219-6.7188 7.8398-6.7188l66.641-2.2383 24.078-14.559-37.52-40.32c-1.6797-1.6797-2.2383-3.9219-2.2383-6.1602 0-2.2383 1.1211-4.4805 2.8008-6.1602 1.1211-0.55859 9.5195-7.8398 26.32-7.8398 20.719 0 44.801 10.641 71.68 30.801l57.121-26.32c3.3594-1.6797 8.3984-2.2383 14-2.2383 10.641 0 30.238 2.8008 35.281 14.559 2.2383 5.0391 4.4805 14-5.6016 22.398-5.0391 3.9219-12.879 7.8398-22.398 12.32l-159.61 72.797c-1.1211 0.55859-2.2383 0.55859-3.3594 0.55859zm-31.359-31.918 31.359 14 155.12-70.559c8.3984-3.9219 19.039-8.3984 20.16-11.199 0 0 0-0.55859-0.55859-1.1211-1.1211-1.6797-9.5195-4.4805-20.16-4.4805-3.9219 0-6.1602 0.55859-7.2812 1.1211l-61.602 28c-2.8008 1.1211-6.1602 1.1211-8.9609-1.1211-31.359-25.199-52.641-30.238-64.961-30.238-2.2383 0-4.4805 0-6.7188 0.55859l36.398 38.641c1.6797 1.6797 2.8008 4.4805 2.2383 6.7188-0.55859 2.2383-1.6797 4.4805-3.9219 6.1602l-34.719 21.281c-1.1211 0.55859-2.8008 1.1211-3.9219 1.1211z"/>
 </g>
</svg>
